<svg width="298" height="22" viewBox="0 0 298 22" fill="none" xmlns="http://www.w3.org/2000/svg">
<path d="M23.3135 6.00781C22.7666 6.00781 22.277 6.10677 21.8447 6.30469C21.4176 6.5026 21.0557 6.78906 20.7588 7.16406C20.4619 7.53385 20.2354 7.98438 20.0791 8.51562C19.9229 9.04167 19.8447 9.63542 19.8447 10.2969C19.8447 11.1823 19.9697 11.9453 20.2197 12.5859C20.4697 13.2214 20.8499 13.7109 21.3604 14.0547C21.8708 14.3932 22.5166 14.5625 23.2979 14.5625C23.7822 14.5625 24.2536 14.5156 24.7119 14.4219C25.1702 14.3281 25.6442 14.2005 26.1338 14.0391V15.6328C25.6702 15.8151 25.2015 15.9479 24.7275 16.0312C24.2536 16.1146 23.7067 16.1562 23.0869 16.1562C21.9202 16.1562 20.9515 15.9141 20.1807 15.4297C19.415 14.9453 18.8421 14.263 18.4619 13.3828C18.0869 12.5026 17.8994 11.4714 17.8994 10.2891C17.8994 9.42448 18.0192 8.63281 18.2588 7.91406C18.4984 7.19531 18.8473 6.57552 19.3057 6.05469C19.764 5.52865 20.3291 5.125 21.001 4.84375C21.6781 4.55729 22.4515 4.41406 23.3213 4.41406C23.8942 4.41406 24.4567 4.47917 25.0088 4.60938C25.5661 4.73438 26.0817 4.91406 26.5557 5.14844L25.8994 6.69531C25.5036 6.50781 25.0895 6.34635 24.6572 6.21094C24.2249 6.07552 23.777 6.00781 23.3135 6.00781ZM36.0557 11.6562C36.0557 12.375 35.9619 13.013 35.7744 13.5703C35.5869 14.1276 35.3135 14.599 34.9541 14.9844C34.5947 15.3646 34.1624 15.6562 33.6572 15.8594C33.152 16.0573 32.5817 16.1562 31.9463 16.1562C31.3525 16.1562 30.8083 16.0573 30.3135 15.8594C29.8187 15.6562 29.389 15.3646 29.0244 14.9844C28.665 14.599 28.3864 14.1276 28.1885 13.5703C27.9906 13.013 27.8916 12.375 27.8916 11.6562C27.8916 10.7031 28.0557 9.89583 28.3838 9.23438C28.7171 8.56771 29.1911 8.0599 29.8057 7.71094C30.4202 7.36198 31.152 7.1875 32.001 7.1875C32.7979 7.1875 33.501 7.36198 34.1104 7.71094C34.7197 8.0599 35.1963 8.56771 35.54 9.23438C35.8838 9.90104 36.0557 10.7083 36.0557 11.6562ZM29.7822 11.6562C29.7822 12.2865 29.8577 12.8255 30.0088 13.2734C30.165 13.7214 30.4046 14.0651 30.7275 14.3047C31.0505 14.5391 31.4671 14.6562 31.9775 14.6562C32.488 14.6562 32.9046 14.5391 33.2275 14.3047C33.5505 14.0651 33.7874 13.7214 33.9385 13.2734C34.0895 12.8255 34.165 12.2865 34.165 11.6562C34.165 11.026 34.0895 10.4922 33.9385 10.0547C33.7874 9.61198 33.5505 9.27604 33.2275 9.04688C32.9046 8.8125 32.4854 8.69531 31.9697 8.69531C31.2093 8.69531 30.6546 8.95052 30.3057 9.46094C29.9567 9.97135 29.7822 10.7031 29.7822 11.6562ZM40.8525 7.1875C41.488 7.1875 42.0583 7.27344 42.5635 7.44531C43.0739 7.61198 43.4775 7.86458 43.7744 8.20312C44.0713 8.54167 44.2197 8.96354 44.2197 9.46875C44.2197 9.98958 44.0687 10.4062 43.7666 10.7188C43.4697 11.026 43.0661 11.2474 42.5557 11.3828V11.4531C42.915 11.5417 43.2406 11.6693 43.5322 11.8359C43.8239 11.9974 44.0557 12.2161 44.2275 12.4922C44.4046 12.763 44.4932 13.112 44.4932 13.5391C44.4932 14.0234 44.3499 14.4635 44.0635 14.8594C43.7822 15.2552 43.3499 15.5703 42.7666 15.8047C42.1833 16.0391 41.4411 16.1562 40.54 16.1562C40.1077 16.1562 39.6963 16.1328 39.3057 16.0859C38.9202 16.0443 38.5687 15.9844 38.251 15.9062C37.9333 15.8229 37.6572 15.724 37.4229 15.6094V14.0312C37.7822 14.2031 38.2171 14.3594 38.7275 14.5C39.238 14.6354 39.7848 14.7031 40.3682 14.7031C40.8005 14.7031 41.1911 14.6641 41.54 14.5859C41.8942 14.5026 42.1729 14.3672 42.376 14.1797C42.5843 13.9922 42.6885 13.7422 42.6885 13.4297C42.6885 13.1432 42.5973 12.9062 42.415 12.7188C42.2327 12.5312 41.9593 12.3932 41.5947 12.3047C41.2301 12.2109 40.7692 12.1641 40.2119 12.1641H39.1807V10.8125H40.0869C40.8525 10.8125 41.4515 10.7292 41.8838 10.5625C42.3213 10.3906 42.54 10.0938 42.54 9.67188C42.54 9.31771 42.3864 9.05208 42.0791 8.875C41.7718 8.69792 41.3005 8.60938 40.665 8.60938C40.2275 8.60938 39.7952 8.65885 39.3682 8.75781C38.9411 8.85156 38.514 8.98698 38.0869 9.16406L37.5088 7.8125C37.9827 7.61979 38.4906 7.46875 39.0322 7.35938C39.5739 7.24479 40.1807 7.1875 40.8525 7.1875ZM53.54 7.35156V14.5781H54.79V19.0469H53.0947V16H47.126V19.0469H45.4307V14.5781H46.1338C46.5713 13.9427 46.9359 13.2344 47.2275 12.4531C47.5244 11.6719 47.7536 10.849 47.915 9.98438C48.0817 9.11458 48.1859 8.23698 48.2275 7.35156H53.54ZM51.7197 8.75781H49.8057C49.7432 9.46094 49.6364 10.1615 49.4854 10.8594C49.3343 11.5521 49.139 12.2161 48.8994 12.8516C48.665 13.4818 48.3838 14.0573 48.0557 14.5781H51.7197V8.75781ZM59.79 7.1875C60.8838 7.1875 61.7093 7.42969 62.2666 7.91406C62.8291 8.39844 63.1104 9.15365 63.1104 10.1797V16H61.8057L61.4541 14.7734H61.3916C61.1468 15.0859 60.8942 15.3438 60.6338 15.5469C60.3734 15.75 60.0713 15.901 59.7275 16C59.389 16.1042 58.9749 16.1562 58.4854 16.1562C57.9697 16.1562 57.5088 16.0625 57.1025 15.875C56.6963 15.6823 56.376 15.3906 56.1416 15C55.9072 14.6094 55.79 14.1146 55.79 13.5156C55.79 12.625 56.1208 11.9557 56.7822 11.5078C57.4489 11.0599 58.4541 10.8125 59.7979 10.7656L61.2979 10.7109V10.2578C61.2979 9.65885 61.1572 9.23177 60.876 8.97656C60.5999 8.72135 60.2093 8.59375 59.7041 8.59375C59.2718 8.59375 58.8525 8.65625 58.4463 8.78125C58.04 8.90625 57.6442 9.0599 57.2588 9.24219L56.665 7.94531C57.0869 7.72135 57.5661 7.53906 58.1025 7.39844C58.6442 7.25781 59.2067 7.1875 59.79 7.1875ZM61.29 11.8672L60.1729 11.9062C59.2562 11.9375 58.613 12.0938 58.2432 12.375C57.8734 12.6562 57.6885 13.0417 57.6885 13.5312C57.6885 13.9583 57.8161 14.2708 58.0713 14.4688C58.3265 14.6615 58.6624 14.7578 59.0791 14.7578C59.7145 14.7578 60.2406 14.5781 60.6572 14.2188C61.0791 13.8542 61.29 13.3203 61.29 12.6172V11.8672ZM67.5244 7.35156V10.8281H71.5713V7.35156H73.415V16H71.5713V12.2656H67.5244V16H65.6807V7.35156H67.5244ZM77.8057 7.35156V11.7656C77.8057 11.9062 77.8005 12.0859 77.79 12.3047C77.7848 12.5182 77.7744 12.7422 77.7588 12.9766C77.7432 13.2057 77.7275 13.4167 77.7119 13.6094C77.6963 13.8021 77.6833 13.9453 77.6729 14.0391L82.0244 7.35156H84.2588V16H82.501V11.6328C82.501 11.4036 82.5062 11.138 82.5166 10.8359C82.5322 10.5339 82.5479 10.2422 82.5635 9.96094C82.5843 9.67969 82.5973 9.46615 82.6025 9.32031L78.2666 16H76.04V7.35156H77.8057ZM90.3447 7.1875C91.1156 7.1875 91.777 7.34635 92.3291 7.66406C92.8812 7.98177 93.3057 8.43229 93.6025 9.01562C93.8994 9.59896 94.0479 10.2969 94.0479 11.1094V12.0938H88.2744C88.2952 12.9323 88.5192 13.5781 88.9463 14.0312C89.3786 14.4844 89.9827 14.7109 90.7588 14.7109C91.3109 14.7109 91.8057 14.6589 92.2432 14.5547C92.6859 14.4453 93.1416 14.2865 93.6104 14.0781V15.5703C93.1781 15.7734 92.738 15.9219 92.29 16.0156C91.8421 16.1094 91.3057 16.1562 90.6807 16.1562C89.8317 16.1562 89.0843 15.9922 88.4385 15.6641C87.7979 15.3307 87.2952 14.8359 86.9307 14.1797C86.5713 13.5234 86.3916 12.7083 86.3916 11.7344C86.3916 10.7656 86.5557 9.94271 86.8838 9.26562C87.2119 8.58854 87.6729 8.07292 88.2666 7.71875C88.8604 7.36458 89.5531 7.1875 90.3447 7.1875ZM90.3447 8.57031C89.7666 8.57031 89.2979 8.75781 88.9385 9.13281C88.5843 9.50781 88.376 10.0573 88.3135 10.7812H92.251C92.2458 10.349 92.1729 9.96615 92.0322 9.63281C91.8968 9.29948 91.6885 9.03906 91.4072 8.85156C91.1312 8.66406 90.777 8.57031 90.3447 8.57031ZM102.04 7.35156V11.7656C102.04 11.9062 102.035 12.0859 102.024 12.3047C102.019 12.5182 102.009 12.7422 101.993 12.9766C101.978 13.2057 101.962 13.4167 101.946 13.6094C101.931 13.8021 101.918 13.9453 101.907 14.0391L106.259 7.35156H108.493V16H106.735V11.6328C106.735 11.4036 106.741 11.138 106.751 10.8359C106.767 10.5339 106.782 10.2422 106.798 9.96094C106.819 9.67969 106.832 9.46615 106.837 9.32031L102.501 16H100.274V7.35156H102.04ZM122.845 7.35156V16H120.993V8.80469H117.134V16H115.29V7.35156H122.845ZM129.915 7.1875C130.941 7.1875 131.764 7.5625 132.384 8.3125C133.009 9.0625 133.321 10.1771 133.321 11.6562C133.321 12.6354 133.175 13.4609 132.884 14.1328C132.597 14.7995 132.194 15.3047 131.673 15.6484C131.157 15.987 130.556 16.1562 129.868 16.1562C129.431 16.1562 129.05 16.099 128.728 15.9844C128.405 15.8698 128.129 15.7214 127.899 15.5391C127.67 15.3516 127.478 15.1484 127.321 14.9297H127.212C127.238 15.138 127.261 15.3698 127.282 15.625C127.308 15.875 127.321 16.1042 127.321 16.3125V19.8359H125.478V7.35156H126.978L127.235 8.54688H127.321C127.483 8.30208 127.678 8.07552 127.907 7.86719C128.142 7.65885 128.423 7.49479 128.751 7.375C129.084 7.25 129.472 7.1875 129.915 7.1875ZM129.423 8.6875C128.918 8.6875 128.511 8.78906 128.204 8.99219C127.902 9.1901 127.681 9.48958 127.54 9.89062C127.405 10.2917 127.332 10.7943 127.321 11.3984V11.6562C127.321 12.2969 127.386 12.8411 127.517 13.2891C127.652 13.7318 127.873 14.0703 128.181 14.3047C128.493 14.5339 128.915 14.6484 129.446 14.6484C129.894 14.6484 130.264 14.526 130.556 14.2812C130.853 14.0365 131.074 13.6875 131.22 13.2344C131.366 12.7812 131.438 12.2474 131.438 11.6328C131.438 10.7005 131.272 9.97656 130.938 9.46094C130.61 8.94531 130.105 8.6875 129.423 8.6875ZM143.103 11.6562C143.103 12.375 143.009 13.013 142.821 13.5703C142.634 14.1276 142.36 14.599 142.001 14.9844C141.642 15.3646 141.209 15.6562 140.704 15.8594C140.199 16.0573 139.629 16.1562 138.993 16.1562C138.399 16.1562 137.855 16.0573 137.36 15.8594C136.866 15.6562 136.436 15.3646 136.071 14.9844C135.712 14.599 135.433 14.1276 135.235 13.5703C135.037 13.013 134.938 12.375 134.938 11.6562C134.938 10.7031 135.103 9.89583 135.431 9.23438C135.764 8.56771 136.238 8.0599 136.853 7.71094C137.467 7.36198 138.199 7.1875 139.048 7.1875C139.845 7.1875 140.548 7.36198 141.157 7.71094C141.767 8.0599 142.243 8.56771 142.587 9.23438C142.931 9.90104 143.103 10.7083 143.103 11.6562ZM136.829 11.6562C136.829 12.2865 136.905 12.8255 137.056 13.2734C137.212 13.7214 137.451 14.0651 137.774 14.3047C138.097 14.5391 138.514 14.6562 139.024 14.6562C139.535 14.6562 139.951 14.5391 140.274 14.3047C140.597 14.0651 140.834 13.7214 140.985 13.2734C141.136 12.8255 141.212 12.2865 141.212 11.6562C141.212 11.026 141.136 10.4922 140.985 10.0547C140.834 9.61198 140.597 9.27604 140.274 9.04688C139.951 8.8125 139.532 8.69531 139.017 8.69531C138.256 8.69531 137.701 8.95052 137.353 9.46094C137.004 9.97135 136.829 10.7031 136.829 11.6562ZM152.274 7.35156V14.5781H153.524V19.0469H151.829V16H145.86V19.0469H144.165V14.5781H144.868C145.306 13.9427 145.67 13.2344 145.962 12.4531C146.259 11.6719 146.488 10.849 146.649 9.98438C146.816 9.11458 146.92 8.23698 146.962 7.35156H152.274ZM150.454 8.75781H148.54C148.478 9.46094 148.371 10.1615 148.22 10.8594C148.069 11.5521 147.873 12.2161 147.634 12.8516C147.399 13.4818 147.118 14.0573 146.79 14.5781H150.454V8.75781ZM162.407 9.57031C162.407 10.0703 162.254 10.4792 161.946 10.7969C161.644 11.1094 161.228 11.3151 160.696 11.4141V11.4766C161.264 11.5495 161.738 11.75 162.118 12.0781C162.498 12.4062 162.688 12.862 162.688 13.4453C162.688 13.9401 162.563 14.3802 162.313 14.7656C162.069 15.1458 161.678 15.4479 161.142 15.6719C160.61 15.8906 159.915 16 159.056 16H155.134V7.35156H159.04C159.686 7.35156 160.261 7.42188 160.767 7.5625C161.277 7.70312 161.678 7.9349 161.97 8.25781C162.261 8.58073 162.407 9.01823 162.407 9.57031ZM160.774 13.3828C160.774 12.9557 160.61 12.6484 160.282 12.4609C159.959 12.2734 159.485 12.1797 158.86 12.1797H156.978V14.6484H158.899C159.483 14.6484 159.941 14.5521 160.274 14.3594C160.608 14.1615 160.774 13.8359 160.774 13.3828ZM160.54 9.73438C160.54 9.39583 160.412 9.14583 160.157 8.98438C159.902 8.81771 159.501 8.73438 158.954 8.73438H156.978V10.8281H158.704C159.308 10.8281 159.764 10.7422 160.071 10.5703C160.384 10.3932 160.54 10.1146 160.54 9.73438ZM166.524 7.35156V11.7656C166.524 11.9062 166.519 12.0859 166.509 12.3047C166.504 12.5182 166.493 12.7422 166.478 12.9766C166.462 13.2057 166.446 13.4167 166.431 13.6094C166.415 13.8021 166.402 13.9453 166.392 14.0391L170.743 7.35156H172.978V16H171.22V11.6328C171.22 11.4036 171.225 11.138 171.235 10.8359C171.251 10.5339 171.267 10.2422 171.282 9.96094C171.303 9.67969 171.316 9.46615 171.321 9.32031L166.985 16H164.759V7.35156H166.524ZM186.837 7.35156L183.446 11.5234L187.142 16H185.126L181.587 11.6094V16H179.876V11.6094L176.337 16H174.321L178.017 11.5234L174.626 7.35156H176.571L179.876 11.5469V7.35156H181.587V11.5469L184.899 7.35156H186.837ZM191.938 7.1875C192.709 7.1875 193.371 7.34635 193.923 7.66406C194.475 7.98177 194.899 8.43229 195.196 9.01562C195.493 9.59896 195.642 10.2969 195.642 11.1094V12.0938H189.868C189.889 12.9323 190.113 13.5781 190.54 14.0312C190.972 14.4844 191.576 14.7109 192.353 14.7109C192.905 14.7109 193.399 14.6589 193.837 14.5547C194.28 14.4453 194.735 14.2865 195.204 14.0781V15.5703C194.772 15.7734 194.332 15.9219 193.884 16.0156C193.436 16.1094 192.899 16.1562 192.274 16.1562C191.425 16.1562 190.678 15.9922 190.032 15.6641C189.392 15.3307 188.889 14.8359 188.524 14.1797C188.165 13.5234 187.985 12.7083 187.985 11.7344C187.985 10.7656 188.149 9.94271 188.478 9.26562C188.806 8.58854 189.267 8.07292 189.86 7.71875C190.454 7.36458 191.147 7.1875 191.938 7.1875ZM191.938 8.57031C191.36 8.57031 190.892 8.75781 190.532 9.13281C190.178 9.50781 189.97 10.0573 189.907 10.7812H193.845C193.84 10.349 193.767 9.96615 193.626 9.63281C193.491 9.29948 193.282 9.03906 193.001 8.85156C192.725 8.66406 192.371 8.57031 191.938 8.57031ZM199.556 7.35156V10.8281H203.603V7.35156H205.446V16H203.603V12.2656H199.556V16H197.712V7.35156H199.556ZM209.837 7.35156V11.7656C209.837 11.9062 209.832 12.0859 209.821 12.3047C209.816 12.5182 209.806 12.7422 209.79 12.9766C209.774 13.2057 209.759 13.4167 209.743 13.6094C209.728 13.8021 209.715 13.9453 209.704 14.0391L214.056 7.35156H216.29V16H214.532V11.6328C214.532 11.4036 214.537 11.138 214.548 10.8359C214.563 10.5339 214.579 10.2422 214.595 9.96094C214.616 9.67969 214.629 9.46615 214.634 9.32031L210.298 16H208.071V7.35156H209.837ZM222.376 7.1875C223.147 7.1875 223.808 7.34635 224.36 7.66406C224.912 7.98177 225.337 8.43229 225.634 9.01562C225.931 9.59896 226.079 10.2969 226.079 11.1094V12.0938H220.306C220.326 12.9323 220.55 13.5781 220.978 14.0312C221.41 14.4844 222.014 14.7109 222.79 14.7109C223.342 14.7109 223.837 14.6589 224.274 14.5547C224.717 14.4453 225.173 14.2865 225.642 14.0781V15.5703C225.209 15.7734 224.769 15.9219 224.321 16.0156C223.873 16.1094 223.337 16.1562 222.712 16.1562C221.863 16.1562 221.116 15.9922 220.47 15.6641C219.829 15.3307 219.326 14.8359 218.962 14.1797C218.603 13.5234 218.423 12.7083 218.423 11.7344C218.423 10.7656 218.587 9.94271 218.915 9.26562C219.243 8.58854 219.704 8.07292 220.298 7.71875C220.892 7.36458 221.584 7.1875 222.376 7.1875ZM222.376 8.57031C221.798 8.57031 221.329 8.75781 220.97 9.13281C220.616 9.50781 220.407 10.0573 220.345 10.7812H224.282C224.277 10.349 224.204 9.96615 224.063 9.63281C223.928 9.29948 223.72 9.03906 223.438 8.85156C223.162 8.66406 222.808 8.57031 222.376 8.57031Z" fill="#1F1E1E"/>
<path d="M247.301 15.6947H245.107C244.655 15.6947 244.23 15.6075 243.831 15.4331C243.432 15.2588 243.087 15.0241 242.794 14.729C242.502 14.4205 242.269 14.0651 242.096 13.6627C241.923 13.2604 241.837 12.8312 241.837 12.3751V3.60355L244.23 3V6.8426H245.626L246.224 9.2568H244.23V12.3751C244.23 12.63 244.316 12.8446 244.489 13.0189C244.662 13.1933 244.868 13.2805 245.107 13.2805H246.703L247.301 15.6947Z" fill="#1F1E1E"/>
<path d="M257.7 5.61538V15.6947H255.307V10.6651C255.307 9.86036 255.028 9.17633 254.469 8.61302C253.911 8.0497 253.233 7.76805 252.435 7.76805C252.05 7.76805 251.677 7.84181 251.319 7.98935C250.973 8.13688 250.667 8.34477 250.401 8.61302C249.843 9.17633 249.564 9.86036 249.564 10.6651C249.564 11.4564 249.843 12.1337 250.401 12.697C250.667 12.9787 250.973 13.1933 251.319 13.3408C251.677 13.475 252.05 13.542 252.435 13.542C252.834 13.542 253.193 13.475 253.512 13.3408L254.37 15.4935C253.758 15.802 253.047 15.9562 252.236 15.9562C251.505 15.9562 250.827 15.8221 250.202 15.5538C249.59 15.2722 249.058 14.8899 248.606 14.4071C248.154 13.9243 247.802 13.3609 247.549 12.7172C247.297 12.0734 247.171 11.3893 247.171 10.6651C247.171 9.92742 247.297 9.23669 247.549 8.5929C247.802 7.94911 248.154 7.3858 248.606 6.90296C249.058 6.42012 249.59 6.04458 250.202 5.77633C250.827 5.49467 251.505 5.35385 252.236 5.35385C252.887 5.35385 253.466 5.45444 253.971 5.65562C254.476 5.8568 254.921 6.11164 255.307 6.42012V5.61538H257.7Z" fill="#1F1E1E"/>
<path d="M269.326 14.6888C269.326 15.413 269.187 16.097 268.907 16.7408C268.642 17.3846 268.269 17.9479 267.791 18.4308C267.312 18.9136 266.754 19.2959 266.116 19.5775C265.477 19.8592 264.793 20 264.062 20C263.463 20 262.898 19.9061 262.366 19.7183C261.835 19.5306 261.343 19.2623 260.891 18.9136L262.626 17.1834C263.051 17.4517 263.53 17.5858 264.062 17.5858C264.873 17.5858 265.551 17.2974 266.096 16.7207C266.654 16.1574 266.933 15.4801 266.933 14.6888V10.645C266.933 9.86706 266.654 9.18304 266.096 8.5929C265.537 8.02959 264.859 7.74793 264.062 7.74793C263.29 7.74793 262.612 8.02959 262.027 8.5929C261.469 9.18304 261.19 9.86706 261.19 10.645C261.19 11.4497 261.469 12.1337 262.027 12.697C262.612 13.2604 263.29 13.542 264.062 13.542C264.46 13.542 264.819 13.475 265.138 13.3408L266.036 15.5941C265.438 15.8355 264.793 15.9562 264.101 15.9562H264.062C263.344 15.9562 262.666 15.8221 262.027 15.5538C261.389 15.2722 260.831 14.8899 260.352 14.4071C259.874 13.9243 259.495 13.3609 259.216 12.7172C258.936 12.0734 258.797 11.3826 258.797 10.645C258.797 9.9073 258.917 9.21657 259.156 8.57278C259.395 7.92899 259.728 7.36568 260.153 6.88284C260.592 6.4 261.11 6.02446 261.708 5.75621C262.32 5.47456 262.985 5.33373 263.703 5.33373C264.394 5.33373 265.005 5.44103 265.537 5.65562C266.069 5.8568 266.534 6.11164 266.933 6.42012V5.6355H269.326V14.6888Z" fill="#1F1E1E"/>
<path d="M272.921 6.4C273.293 6.09152 273.712 5.83669 274.177 5.6355C274.656 5.43432 275.194 5.33373 275.792 5.33373V7.74793C274.995 7.74793 274.317 8.02959 273.758 8.5929C273.2 9.18304 272.921 9.86706 272.921 10.645V15.6947H270.528V10.645V5.61538H272.921V6.4Z" fill="#1F1E1E"/>
<path d="M283.85 11.8722H278.626C278.759 12.1807 278.951 12.4556 279.204 12.697C279.483 12.9787 279.796 13.1933 280.141 13.3408C280.487 13.475 280.853 13.542 281.238 13.542C281.783 13.542 282.268 13.4146 282.694 13.1598L285.187 14.1657C284.708 14.729 284.13 15.1716 283.452 15.4935C282.774 15.802 282.036 15.9562 281.238 15.9562C280.507 15.9562 279.822 15.8221 279.184 15.5538C278.546 15.2722 277.988 14.8899 277.509 14.4071C277.03 13.9243 276.651 13.3609 276.372 12.7172C276.106 12.0734 275.973 11.3893 275.973 10.6651C275.973 9.92742 276.106 9.23669 276.372 8.5929C276.651 7.94911 277.03 7.3858 277.509 6.90296C277.988 6.42012 278.546 6.04458 279.184 5.77633C279.822 5.49467 280.507 5.35385 281.238 5.35385C281.969 5.35385 282.654 5.49467 283.292 5.77633C283.93 6.04458 284.489 6.42012 284.967 6.90296C285.446 7.3858 285.818 7.94911 286.084 8.5929C286.363 9.23669 286.503 9.92742 286.503 10.6651C286.503 11.0943 286.456 11.4966 286.363 11.8722H283.85ZM281.238 7.76805C280.467 7.76805 279.789 8.0497 279.204 8.61302C278.951 8.86785 278.759 9.14951 278.626 9.45799H283.85C283.718 9.14951 283.525 8.86785 283.272 8.61302C282.714 8.0497 282.036 7.76805 281.238 7.76805Z" fill="#1F1E1E"/>
<path d="M295.185 11.8722H289.96C290.093 12.1807 290.286 12.4556 290.538 12.697C290.817 12.9787 291.13 13.1933 291.475 13.3408C291.821 13.475 292.187 13.542 292.572 13.542C293.117 13.542 293.603 13.4146 294.028 13.1598L296.521 14.1657C296.042 14.729 295.464 15.1716 294.786 15.4935C294.108 15.802 293.37 15.9562 292.572 15.9562C291.841 15.9562 291.156 15.8221 290.518 15.5538C289.88 15.2722 289.322 14.8899 288.843 14.4071C288.365 13.9243 287.986 13.3609 287.706 12.7172C287.441 12.0734 287.308 11.3893 287.308 10.6651C287.308 9.92742 287.441 9.23669 287.706 8.5929C287.986 7.94911 288.365 7.3858 288.843 6.90296C289.322 6.42012 289.88 6.04458 290.518 5.77633C291.156 5.49467 291.841 5.35385 292.572 5.35385C293.303 5.35385 293.988 5.49467 294.626 5.77633C295.264 6.04458 295.823 6.42012 296.301 6.90296C296.78 7.3858 297.152 7.94911 297.418 8.5929C297.697 9.23669 297.837 9.92742 297.837 10.6651C297.837 11.0943 297.79 11.4966 297.697 11.8722H295.185ZM292.572 7.76805C291.801 7.76805 291.123 8.0497 290.538 8.61302C290.286 8.86785 290.093 9.14951 289.96 9.45799H295.185C295.052 9.14951 294.859 8.86785 294.606 8.61302C294.048 8.0497 293.37 7.76805 292.572 7.76805Z" fill="#1F1E1E"/>
</svg>
